<svg version="1.1" id="Layer_1"
    xmlns="http://www.w3.org/2000/svg"
    xmlns:xlink="http://www.w3.org/1999/xlink" viewBox="0 0 1920 1080" preserveAspectRatio="xMinyMin meet">
    <style type="text/css">
	.st0{fill:#451F55;stroke:#000000;stroke-miterlimit:10;}
	.st1{fill:#22162B;stroke:#000000;stroke-miterlimit:10;}
    </style>
    <path class="st0" d="M-0.5,881.5l251.8-152.91c7.07-6.59,18.63-2.86,20.52,6.63l15.72,79.11c2.58,12.98,21.01,13.35,24.11,0.48
	l37.19-154.74c2.36-9.81,14.85-12.8,21.39-5.13l59.18,69.38c5.74,6.73,16.48,5.42,20.43-2.49l107.35-214.7
	c4.6-9.2,17.77-9.07,22.18,0.22l66.39,139.51c1.13,2.37,2.98,4.32,5.29,5.56l145.03,78.16c3.41,1.84,7.49,1.97,11.01,0.35
	l291.2-133.87c0.8-0.37,1.57-0.83,2.27-1.36l255.56-192.62c6-4.52,14.62-2.68,18.24,3.91l181.14,329.19
	c4.26,7.75,15.05,8.63,20.52,1.68l108.91-138.46c4.56-5.8,13.15-6.33,18.39-1.13L1920.5,881.5c0.74,0.89,4-1.15,4,0
	c0,28.26,0,19,0-58.86v253.51c0,6.82-5.53,12.34-12.34,12.34H16.84c-6.82,0-25.34-1.18-25.34-8l3-114
	C-5.5,963.07-3.01,883.83-0.5,881.5z"/>
    <path class="st1" d="M41.28,1078.02l323.72-163.29c5.01-2.52,11.08-1.36,14.8,2.84l72.93,82.36c3.46,3.91,9,5.22,13.84,3.27
	l207.88-83.5c9.46-3.8,19.19,4.86,16.51,14.7l-11.54,42.31c-1.66,6.1,1.55,12.47,7.45,14.76l112.9,43.76
	c3.61,1.4,7.66,1.02,10.95-1.01l212.6-131.34c4.33-2.67,9.85-2.42,13.92,0.64l56.12,42.3c3.76,2.83,8.8,3.28,13,1.16l242.58-122.72
	c3.5-1.77,7.63-1.77,11.13-0.01l117.19,59.06c2.73,1.38,5.87,1.69,8.82,0.88l129.59-35.59c4.75-1.31,9.83,0.34,12.91,4.19
	l105.7,132.13c3.15,3.94,8.39,5.57,13.23,4.1l86-51.57c7.91-2.4,79,155,91,143l-0.04-0.32c0.02,6.81-5.47,12.35-12.28,12.38
	L46.9,1101.38c-6.84,0.03-12.4-5.5-12.4-12.34l0,0C34.5,1084.38,37.12,1080.12,41.28,1078.02z"/>
</svg>